<?xml version="1.0" encoding="UTF-8" standalone="no"?>
<!-- Created with Inkscape (http://www.inkscape.org/) -->

<svg
   xmlns:dc="http://purl.org/dc/elements/1.1/"
   xmlns:cc="http://creativecommons.org/ns#"
   xmlns:rdf="http://www.w3.org/1999/02/22-rdf-syntax-ns#"
   xmlns:svg="http://www.w3.org/2000/svg"
   xmlns="http://www.w3.org/2000/svg"
   xmlns:sodipodi="http://sodipodi.sourceforge.net/DTD/sodipodi-0.dtd"
   xmlns:inkscape="http://www.inkscape.org/namespaces/inkscape"
   width="0.75in"
   height="0.75in"
   viewBox="0 0 0 68.21331"
   id="svg2"
   version="1.1"
   inkscape:version="0.91+devel+osxmenu r12895"
   inkscape:export-filename="/Users/takunoko/Documents/TuT/cancel_lecture/images/icon/icon_19.png"
   inkscape:export-xdpi="96"
   inkscape:export-ydpi="96"
   sodipodi:docname="icon.svg">
  <defs
     id="defs4" />
  <sodipodi:namedview
     id="base"
     pagecolor="#ffffff"
     bordercolor="#666666"
     borderopacity="1.0"
     inkscape:pageopacity="0.0"
     inkscape:pageshadow="2"
     inkscape:zoom="5.6568543"
     inkscape:cx="52.438237"
     inkscape:cy="36.719643"
     inkscape:document-units="mm"
     inkscape:current-layer="layer1"
     showgrid="true"
     fit-margin-top="0"
     fit-margin-left="0"
     fit-margin-right="0"
     fit-margin-bottom="0"
     units="in"
     inkscape:window-width="1279"
     inkscape:window-height="851"
     inkscape:window-x="0"
     inkscape:window-y="23"
     inkscape:window-maximized="0">
    <inkscape:grid
       type="xygrid"
       id="grid4514"
       originx="-197.46462"
       originy="-996.14197" />
  </sodipodi:namedview>
  <metadata
     id="metadata7">
    <rdf:RDF>
      <cc:Work
         rdf:about="">
        <dc:format>image/svg+xml</dc:format>
        <dc:type
           rdf:resource="http://purl.org/dc/dcmitype/StillImage" />
        <dc:title />
      </cc:Work>
    </rdf:RDF>
  </metadata>
  <g
     inkscape:label="Layer 1"
     inkscape:groupmode="layer"
     id="layer1"
     transform="translate(-52.245846,-11.602642)">
    <rect
       style="opacity:1;fill:#ffffff;fill-opacity:1;stroke:none;stroke-width:0.50794065;stroke-miterlimit:4;stroke-dasharray:none;stroke-dashoffset:0;stroke-opacity:1"
       id="rect4531"
       width="72.358391"
       height="72.341988"
       x="52.570282"
       y="11.473012"
       inkscape:export-xdpi="1698.21"
       inkscape:export-ydpi="1698.21" />
    <path
       style="fill:none;fill-rule:evenodd;stroke:#000000;stroke-width:3;stroke-linecap:butt;stroke-linejoin:miter;stroke-miterlimit:4;stroke-dasharray:none;stroke-opacity:1"
       d="m 62.765653,20.065566 c 0.251984,0.125992 0.479698,0.322725 0.755952,0.377976 0.370636,0.07413 0.755954,0 1.13393,0 0.629959,0 1.264785,0.07814 1.889879,0 0.395345,-0.04942 0.739513,-0.321631 1.13393,-0.377976 0.498903,-0.07127 1.011827,0.06251 1.511903,0 0.515469,-0.06443 0.999495,-0.292575 1.511906,-0.377976 0.248555,-0.04143 0.5065,0.03564 0.755952,0 0.635978,-0.09085 1.280413,-0.17482 1.889881,-0.377976 1.401199,-0.467066 -0.460735,-0.377977 0.755952,-0.377977 0.629962,0 1.259922,0 1.889881,0 0.251984,0 0.503968,0 0.755952,0 0.125992,0 0.377976,-0.125992 0.377976,0 0,0.125993 -0.503968,0 -0.377976,0 0.251984,0 0.503968,0 0.755954,0 0.251984,0 0.577771,-0.178179 0.755952,0 0.281726,0.281727 0.251984,0.755953 0.377976,1.133929"
       id="path4526"
       inkscape:connector-curvature="0"
       inkscape:export-xdpi="1698.21"
       inkscape:export-ydpi="1698.21" />
    <path
       style="fill:none;fill-rule:evenodd;stroke:#000000;stroke-width:3;stroke-linecap:butt;stroke-linejoin:miter;stroke-miterlimit:4;stroke-dasharray:none;stroke-opacity:1"
       d="m 73.348986,20.065566 c -0.755951,0.503968 -1.722731,0.785071 -2.267857,1.511905 -0.302382,0.403174 0,1.007936 0,1.511904 0,2.015872 0,4.031746 0,6.04762 0,1.385911 0,2.771825 0,4.157736 0,0.09167 0.01214,1.121775 0,1.13393 -0.08909,0.08909 -0.482807,-0.06989 -0.377976,0 0.84518,0.563454 1.76389,1.007936 2.645833,1.511906"
       id="path4528"
       inkscape:connector-curvature="0"
       inkscape:export-xdpi="1698.21"
       inkscape:export-ydpi="1698.21" />
    <path
       style="fill:none;fill-rule:evenodd;stroke:#000000;stroke-width:3;stroke-linecap:butt;stroke-linejoin:miter;stroke-miterlimit:4;stroke-dasharray:none;stroke-opacity:1"
       d="m 83.932319,25.357234 c -0.755951,0.503968 -1.676585,0.822087 -2.267857,1.511903 -0.245983,0.286981 0,0.755952 0,1.133928 0,0.50397 0,1.007938 0,1.511906 0,1.133927 0,2.267857 0,3.401784 0,0.125992 0,0.251984 0,0.377976 0,0.125992 -0.08909,0.288888 0,0.377979 0.08909,0.08909 0.288888,-0.08909 0.377976,0 0.08909,0.08909 -0.08909,0.288885 0,0.377975 0.08909,0.08909 0.265287,-0.05635 0.377976,0 0.159369,0.07968 0.218609,0.298292 0.377978,0.377976 0.09938,0.04969 1.314252,0 1.511903,0 0.138809,0 1.496695,0.01521 1.511906,0 0.08909,-0.08909 -0.05635,-0.265284 0,-0.377976 0.786522,-1.573045 -0.02609,0.40407 0.755952,-0.377975 0.08909,-0.08909 -0.08909,-0.288888 0,-0.377979 0.178181,-0.178178 0.577773,0.178181 0.755951,0 0.178181,-0.178178 -0.178178,-0.57777 0,-0.755951 0.08909,-0.08909 0.288888,0.08909 0.377976,0 0.178181,-0.178179 -0.178178,-0.577774 0,-0.755952 0.08909,-0.08909 0.288888,0.08909 0.377979,0 0.08909,-0.08909 -0.05635,-0.265284 0,-0.377976 0.07968,-0.159369 0.279138,-0.229722 0.377975,-0.377976 0.832742,-0.190346 0.199795,-0.77757 0.377976,-1.13393 0.07968,-0.159369 0.298291,-0.218606 0.377976,-0.377975 0.05635,-0.112692 0,-0.251984 0,-0.377976 0,-0.125992 0,-0.251984 0,-0.377976 0,-0.755954 0,-1.511906 0,-2.267858 0,-0.125992 0.08909,-0.288888 0,-0.377975 -0.0405,-0.04051 -1.018127,0.146372 -0.755952,-0.377976 0.125992,-0.251984 0.503968,-0.251984 0.755952,-0.377976"
       id="path4530"
       inkscape:connector-curvature="0"
       inkscape:export-xdpi="1698.21"
       inkscape:export-ydpi="1698.21" />
    <path
       style="fill:none;fill-rule:evenodd;stroke:#000000;stroke-width:3;stroke-linecap:butt;stroke-linejoin:miter;stroke-miterlimit:4;stroke-dasharray:none;stroke-opacity:1"
       d="m 94.515653,14.773899 c 0.503967,0.881945 0.793638,1.927568 1.511907,2.645833 0.60289,0.60289 1.40165,-0.280331 1.88988,-0.377976 0.37063,-0.07413 0.75595,0 1.13393,0 2.26786,0 4.53571,0 6.80357,0 0.50397,0 1.00794,0 1.5119,0 0.126,0 0.37798,-0.125992 0.37798,0 0,0.125993 -0.50397,0 -0.37798,0 0.25199,0 0.53058,0.112691 0.75596,0 0.11269,-0.05635 -0.0891,-0.288886 0,-0.377976 0.69581,-0.695814 1.5119,-1.25992 2.26786,-1.889881"
       id="path4532"
       inkscape:connector-curvature="0"
       inkscape:export-xdpi="1698.21"
       inkscape:export-ydpi="1698.21" />
    <path
       style="fill:none;fill-rule:evenodd;stroke:#000000;stroke-width:3;stroke-linecap:butt;stroke-linejoin:miter;stroke-miterlimit:4;stroke-dasharray:none;stroke-opacity:1"
       d="m 99.80732,14.773899 c 0.51868,3.760703 0.37798,7.555352 0.37798,11.339287 0,0.629959 0,1.259919 0,1.889879 0,0.125992 0,0.251986 0,0.377978 0,0.125992 -0.0563,0.265285 0,0.377976 0.0797,0.159369 0.29829,0.218607 0.37797,0.377976 0.0563,0.112691 0,0.251984 0,0.377976 0,0.125991 0,0.251983 0,0.377975 0,0.755952 0,1.511906 0,2.267858 0,0.251984 0,0.503968 0,0.755951 0,0.125992 0.0398,0.497504 0,0.377976 -0.29005,-0.870164 -0.50397,-1.763887 -0.75595,-2.64583"
       id="path4534"
       inkscape:connector-curvature="0"
       inkscape:export-xdpi="1698.21"
       inkscape:export-ydpi="1698.21" />
    <path
       style="fill:none;fill-rule:evenodd;stroke:#000000;stroke-width:3;stroke-linecap:butt;stroke-linejoin:miter;stroke-miterlimit:4;stroke-dasharray:none;stroke-opacity:1"
       d="m 78.640653,46.5239 c -0.62996,0.251984 -1.379268,0.309163 -1.889882,0.755952 -1.003874,0.87839 -1.878076,4.036687 -2.267857,4.913691 -0.572101,1.287224 -1.286862,2.506726 -1.889879,3.779761 -2.694885,5.689197 -0.791631,1.607042 -1.889882,4.535714 -0.238234,0.635289 -0.488683,1.266251 -0.755952,1.88988 -0.110979,0.258947 -0.309647,0.482639 -0.377976,0.755954 -0.06112,0.244459 0.07968,0.516898 0,0.755951 -0.112691,0.338072 -0.596585,0.437216 -0.755954,0.755952 0,1.007938 0.125992,-0.125992 -0.377976,0.377976 -0.08909,0.08909 0.08909,0.288888 0,0.377978 -0.08909,0.08909 -0.288885,-0.08909 -0.377975,0 -0.08909,0.08909 0.08909,0.288886 0,0.377976 -0.08909,0.08909 -0.377976,-0.125992 -0.377976,0 0,0.642435 0.251984,1.259919 0.377976,1.889882"
       id="path4536"
       inkscape:connector-curvature="0"
       inkscape:export-xdpi="1698.21"
       inkscape:export-ydpi="1698.21" />
    <path
       style="fill:none;fill-rule:evenodd;stroke:#000000;stroke-width:3;stroke-linecap:butt;stroke-linejoin:miter;stroke-miterlimit:4;stroke-dasharray:none;stroke-opacity:1"
       d="m 73.348986,57.107234 c 0.251984,0.377975 0.631156,0.697134 0.755952,1.133927 0.138451,0.484576 0,1.007935 0,1.511903 0,1.007938 0,2.015874 0,3.023812 0,4.283728 0,8.56746 0,12.851188 0,0.251987 0,0.50397 0,0.755954 0,0.251984 -0.07968,0.516898 0,0.755952 0.05635,0.169037 0.298294,0.218607 0.377976,0.377976 0.05752,0.11503 0,0.963705 0,1.13393 0,0.377976 0,0.755951 0,1.133927 0,0.125992 0.0756,0.478769 0,0.377976 C 74.042123,79.576057 73.726962,78.90386 73.348986,78.2739"
       id="path4538"
       inkscape:connector-curvature="0"
       inkscape:export-xdpi="1698.21"
       inkscape:export-ydpi="1698.21" />
    <path
       style="fill:none;fill-rule:evenodd;stroke:#000000;stroke-width:3;stroke-linecap:butt;stroke-linejoin:miter;stroke-miterlimit:4;stroke-dasharray:none;stroke-opacity:1"
       d="m 83.932319,57.107234 c 0,-0.503971 -0.331864,-1.132631 0,-1.511906 0.668896,-0.764453 1.737292,-1.057635 2.645834,-1.511906 1.425437,-0.712719 5.244724,-2.129203 6.425594,-2.645833 1.357164,-0.108903 2.272495,-1.325235 3.401783,-1.88988 0.60686,-0.303429 1.26626,-0.488682 1.88988,-0.755954 1.39024,-0.595815 0.16983,-0.336346 2.26786,-0.755951 0.47247,-0.09449 0.56697,0.188989 1.13393,0 0.16904,-0.05635 0.21861,-0.298292 0.37798,-0.377976 0.0977,-0.04886 1.99994,0 2.26785,0 0.88195,0 1.76389,0 2.64584,0 0.12599,0 0.28888,0.08909 0.37797,0 0.0891,-0.08909 -0.0891,-0.288888 0,-0.377976 0.18899,-0.188989 0.94494,0.188987 1.13393,0 0.0891,-0.08909 -0.0891,-0.288888 0,-0.377976 0.0122,-0.01217 1.04226,0 1.13393,0 1.04817,0 -0.60336,0.05634 1.13393,-0.377978 0.24446,-0.06111 1.00794,0 0.75595,0 -0.37797,2e-6 -0.75595,0 -1.13392,2e-6"
       id="path4540"
       inkscape:connector-curvature="0"
       inkscape:export-xdpi="1698.21"
       inkscape:export-ydpi="1698.21" />
    <path
       style="fill:none;fill-rule:evenodd;stroke:#000000;stroke-width:3;stroke-linecap:butt;stroke-linejoin:miter;stroke-miterlimit:4;stroke-dasharray:none;stroke-opacity:1"
       d="m 94.515653,41.232234 c 0.377975,1.511903 0.863094,3.000991 1.133927,4.535712 0.109479,0.620374 0,1.259922 0,1.889882 0,1.637898 0,3.275793 0,4.913691 0,1.637895 0,3.275793 0,4.91369 0,0.881944 0,1.763887 0,2.645834 0,0.251984 -0.04942,0.50886 0,0.755951 0.07814,0.390684 0.299842,0.743244 0.37798,1.133928 0.0619,0.30943 -0.09695,1.695974 0,1.889881 0.0797,0.15937 0.29829,0.218607 0.37797,0.377976 0.11476,0.229516 -0.11475,2.038342 0,2.267858 0.0797,0.159369 0.2983,0.218606 0.37798,0.377976 0.0489,0.09773 0,1.999948 0,2.267857 0,0.125992 -0.0564,0.265284 0,0.377976 0.0797,0.159369 0.29829,0.218606 0.37798,0.377976 0.0683,0.136689 0,1.626983 0,1.889881 0,1.385914 0,2.771826 0,4.157739 0,0.881944 0,1.763888 0,2.645834 0,0.125992 0.0891,0.288885 0,0.377976 -0.0891,0.08909 -0.28889,-0.08909 -0.37798,0 -0.0891,0.08909 0,0.251983 0,0.377975 -0.75595,-0.377975 -1.511906,-0.755951 -2.267857,-1.133927"
       id="path4542"
       inkscape:connector-curvature="0"
       inkscape:export-xdpi="1698.21"
       inkscape:export-ydpi="1698.21" />
    <path
       style="fill:none;fill-rule:evenodd;stroke:#000000;stroke-width:3;stroke-linecap:butt;stroke-linejoin:miter;stroke-miterlimit:4;stroke-dasharray:none;stroke-opacity:1"
       d="m 94.515653,51.815567 c 0.251983,0.881944 0.664683,1.733148 0.755951,2.645831 0.07186,0.718555 -0.833646,1.76739 -1.133927,2.267857 -0.289896,0.483158 -0.503968,1.007938 -0.755952,1.511906 -0.498515,0.997024 -0.93862,2.068333 -1.511906,3.023809 -0.233719,0.389533 -0.522232,0.744395 -0.755951,1.133928 -0.289896,0.483158 -0.443405,1.043085 -0.755955,1.511905 -0.09884,0.148254 -0.279138,0.229722 -0.377975,0.377976 -0.156274,0.23441 -0.221703,0.521542 -0.377976,0.755952 -0.09884,0.148256 -0.279141,0.229722 -0.377976,0.377978 -0.156273,0.234411 -0.221702,0.521542 -0.377976,0.755952 -0.09884,0.148254 -0.298291,0.218607 -0.377976,0.377976 -0.05634,0.112691 0.05635,0.265284 0,0.377976 -0.159369,0.318738 -0.643263,0.41788 -0.755954,0.755951 0,1.720657 0.178181,0.02162 -0.377976,1.13393 -0.112688,0.22538 0.178181,0.577773 0,0.755952 -0.08909,0.08909 -0.288885,-0.08909 -0.377975,0 -0.08909,0.08909 0.05635,0.265287 0,0.377976 -0.07968,0.159369 -0.298292,0.218609 -0.377976,0.377975 -0.05635,0.112692 0.08909,0.288888 0,0.377979 -0.08909,0.08909 -0.288886,-0.08909 -0.377976,0 -0.08909,0.08909 0.08909,0.288885 0,0.377976 -0.08909,0.08909 -0.288888,-0.08909 -0.377976,0 -0.08909,0.08909 0.05635,0.265284 0,0.377975 -0.07968,0.15937 -0.298291,0.218607 -0.377976,0.377976 -0.05634,0.112692 0.05634,0.265285 0,0.377976 -0.07968,0.159369 -0.298294,0.218607 -0.377978,0.377976 -0.05634,0.112691 0.119528,0.338135 0,0.377976 -0.358579,0.119528 -0.755952,0 -1.133928,2e-6"
       id="path4544"
       inkscape:connector-curvature="0"
       inkscape:export-xdpi="1698.21"
       inkscape:export-ydpi="1698.21" />
    <path
       style="fill:none;fill-rule:evenodd;stroke:#000000;stroke-width:3;stroke-linecap:butt;stroke-linejoin:miter;stroke-miterlimit:4;stroke-dasharray:none;stroke-opacity:1"
       d="m 94.515653,51.815567 c 1.007935,-0.125995 2.014237,-0.490151 3.023807,-0.377978 0.28,0.03111 0.25199,0.50397 0.37798,0.755954 0.37797,0.755951 0.75595,1.511903 1.13393,2.267855 0.12599,0.251986 0.20894,0.530571 0.37797,0.755954 0.32073,0.42763 0.83742,0.689165 1.13393,1.133927 0.31255,0.468823 0.44341,1.043083 0.75596,1.511906 0.19767,0.296508 0.59658,0.437214 0.75595,0.755952 0.17818,0.356359 0.19979,0.777568 0.37797,1.133927 0.0797,0.159369 0.25199,0.251987 0.37798,0.377979 0.12599,0.125992 0.22972,0.279138 0.37797,0.377975 0.23442,0.156274 0.55675,0.178766 0.75596,0.377976 0.0891,0.08909 -0.0891,0.288886 0,0.377976 0.19921,0.19921 0.55674,0.178766 0.75595,0.377976 0.0891,0.08909 -0.0891,0.288888 0,0.377976 0.0891,0.08909 0.26528,-0.05635 0.37798,0 0.15937,0.07968 0.25198,0.251984 0.37797,0.377976 0.12599,0.125994 0.29829,0.218609 0.37798,0.377978 0.0563,0.112689 -0.0563,0.265284 0,0.377976 0.15937,0.318735 0.59658,0.437213 0.75595,0.755951 0.46547,0.930937 -1.09716,-0.341212 0.37798,1.133928 0.19921,0.199213 0.53057,0.208941 0.75595,0.377978 0.28509,0.213815 0.50397,0.503968 0.75595,0.755952 0.12599,0.125992 0.25199,0.251984 0.37798,0.377976 0.12599,0.125992 0.29829,0.218606 0.37798,0.377976 0.11268,0.225382 -0.1127,0.530571 0,0.755951 0.78652,1.573049 -0.0261,-0.404069 0.75595,0.377979 0.0891,0.08909 -0.11269,0.32163 0,0.377975 0.22538,0.112692 0.57777,-0.178181 0.75595,0 0.17818,0.178179 -0.11269,0.530569 0,0.755952 0.0563,0.112691 0.28889,-0.08909 0.37798,0 0.0891,0.08909 -0.0891,0.288885 0,0.377976 0.0891,0.08909 0.42477,0.11698 0.37797,0 -0.27284,-0.682109 -0.75595,-1.25992 -1.13392,-1.889879"
       id="path4546"
       inkscape:connector-curvature="0"
       inkscape:export-xdpi="1698.21"
       inkscape:export-ydpi="1698.21" />
  </g>
</svg>
